<?xml version="1.0" standalone="no"?>
<!DOCTYPE svg PUBLIC "-//W3C//DTD SVG 20010904//EN"
 "http://www.w3.org/TR/2001/REC-SVG-20010904/DTD/svg10.dtd">
<svg version="1.0" xmlns="http://www.w3.org/2000/svg"
 width="600.000000pt" height="600.000000pt" viewBox="0 0 600.000000 600.000000"
 preserveAspectRatio="xMidYMid meet">
<metadata>
Created by potrace 1.16, written by Peter Selinger 2001-2019
</metadata>
<g transform="translate(0.000000,600.000000) scale(0.100000,-0.100000)"
fill="#000000" stroke="none">
<path d="M743 5985 c-349 -63 -623 -318 -715 -665 l-23 -85 0 -2235 0 -2235
22 -85 c29 -107 96 -245 166 -335 111 -145 302 -269 487 -318 l85 -22 2235 0
2235 0 85 22 c184 49 367 166 480 308 71 90 142 229 173 340 l22 80 3 1573 2
1572 -1200 0 c-1060 0 -1200 2 -1200 15 0 8 -9 15 -20 15 -20 0 -20 7 -20
1035 l0 1035 -1372 -1 c-1080 -1 -1388 -4 -1445 -14z m2192 -4275 l-730 -730
-730 730 -730 730 730 730 730 730 730 -730 730 -730 -730 -730z"/>
<path d="M3650 4945 c0 -747 3 -947 13 -950 6 -3 507 -4 1111 -3 l1099 3
-1106 948 c-608 521 -1108 947 -1111 947 -3 0 -6 -425 -6 -945z"/>
</g>
</svg>
