<svg id="SvgjsSvg1016" width="288" height="288" xmlns="http://www.w3.org/2000/svg" version="1.1" xmlns:xlink="http://www.w3.org/1999/xlink" xmlns:svgjs="http://svgjs.com/svgjs"><defs id="SvgjsDefs1017"></defs><g id="SvgjsG1018" transform="matrix(1,0,0,1,0,0)"><svg xmlns="http://www.w3.org/2000/svg" width="288" height="288" enable-background="new 0 0 32 32" viewBox="0 0 32 32"><path fill="#000000" d="M12 24c0-2.211-1.793-4-4-4-2.211 0-4 1.789-4 4v.008c0 2.957-1.609 5.535-4 6.918l.016.012C1.188 31.613 2.547 32 4 32 8.418 32 12 28.418 12 24L12 24zM30.828 1.172c-1.562-1.562-4.094-1.562-5.656 0L10.047 16.297c2.758.738 4.922 2.898 5.656 5.66L30.828 6.828C32.391 5.266 32.391 2.734 30.828 1.172z" class="color4e4e50 svgShape"></path></svg></g></svg>